<svg xmlns="http://www.w3.org/2000/svg" xmlns:xlink="http://www.w3.org/1999/xlink" version="1.1" x="256.7756" y="0" viewBox="2.5430002212524414 0.002332925796508789 26.91400146484375 31.99566650390625" enable-background="new 0 0 32 32" xml:space="preserve" height="57.92439999999999" width="48.724641702958884" class="icon-a-0" data-fill-palette-color="accent" id="a-0"><g display="none" fill="#636365" data-fill-palette-color="accent"><path display="inline" d="M14 12c-1.106 0-2 0.896-2 2 0 1.104 0.894 2 2 2 1.103 0 2-0.896 2-2C16 12.896 15.104 12 14 12zM24 8c-1.039 0-2.023 0.213-2.934 0.573C19.361 4.705 15.5 2 11 2 4.924 2 0 6.926 0 13c0 5.736 4.393 10.443 10 10.949v-4.051C6.617 19.408 4 16.517 4 13c0-3.859 3.141-7 7-7 2.769 0 5.285 1.643 6.406 4.186 0.658 1.492 2.121 2.388 3.66 2.388 0.49 0 0.99-0.091 1.473-0.282C23.029 12.099 23.52 12 24 12c2.205 0 4 1.794 4 4 0 2.206-1.795 4-4 4v4c4.418 0 8-3.582 8-8C32 11.582 28.418 8 24 8zM14 24c-1.106 0-2 0.896-2 2 0 1.104 0.894 2 2 2 1.103 0 2-0.896 2-2C16 24.896 15.104 24 14 24zM14 18c-1.106 0-2 0.896-2 2 0 1.104 0.894 2 2 2 1.103 0 2-0.896 2-2C16 18.896 15.104 18 14 18zM20 14c-1.106 0-2 0.896-2 2 0 1.104 0.894 2 2 2 1.104 0 2-0.896 2-2C22 14.896 21.104 14 20 14zM20 20c-1.106 0-2 0.896-2 2 0 1.104 0.894 2 2 2 1.104 0 2-0.896 2-2C22 20.896 21.104 20 20 20zM20 26c-1.106 0-2 0.896-2 2 0 1.104 0.894 2 2 2 1.104 0 2-0.896 2-2C22 26.896 21.104 26 20 26z" fill="#636365" data-fill-palette-color="accent"></path></g><g fill="#636365" data-fill-palette-color="accent"><path fill-rule="evenodd" clip-rule="evenodd" d="M29.457 2.393c-8.074 0-10.766 2.691-10.766 2.691V2.393C24.074-2.986 29.457 2.393 29.457 2.393zM18.691 7.775c0-1.484 1.809-2.691 4.035-2.691 2.231 0 4.039 1.207 4.039 2.691 0 1.488-1.809 2.691-4.039 2.691C20.5 10.467 18.691 9.264 18.691 7.775zM21.383 18.541h2.691V15.85l2.691 2.691-2.691 2.691h-5.383L16 18.541l-2.691 2.691H7.926l-2.692-2.691 2.692-2.691v2.691h2.691l2.691-2.691h5.383L21.383 18.541zM13.309 7.775c0 1.488-1.807 2.691-4.037 2.691-2.229 0-4.037-1.203-4.037-2.691 0-1.484 1.809-2.691 4.037-2.691C11.502 5.084 13.309 6.291 13.309 7.775zM13.309 2.393v2.691c0 0-5.383-2.691-10.766-2.691C2.543 2.393 7.926-2.986 13.309 2.393zM18.691 23.924v5.383L16 31.998l-2.691-2.691v-5.383C13.309 23.924 16 21.232 18.691 23.924z" fill="#636365" data-fill-palette-color="accent"></path></g></svg>